<?xml version="1.0" encoding="UTF-8" standalone="no"?>
<!-- Uploaded to: SVG Repo, www.svgrepo.com, Generator: SVG Repo Mixer Tools -->

<svg
   width="800"
   height="551.93103"
   viewBox="0 -9 58 40.015"
   fill="none"
   version="1.1"
   id="svg4"
   sodipodi:docname="elo.svg"
   inkscape:version="1.3.2 (091e20e, 2023-11-25, custom)"
   xmlns:inkscape="http://www.inkscape.org/namespaces/inkscape"
   xmlns:sodipodi="http://sodipodi.sourceforge.net/DTD/sodipodi-0.dtd"
   xmlns="http://www.w3.org/2000/svg"
   xmlns:svg="http://www.w3.org/2000/svg">
  <defs
     id="defs4" />
  <sodipodi:namedview
     id="namedview4"
     pagecolor="#505050"
     bordercolor="#eeeeee"
     borderopacity="1"
     inkscape:showpageshadow="0"
     inkscape:pageopacity="0"
     inkscape:pagecheckerboard="0"
     inkscape:deskcolor="#505050"
     inkscape:zoom="1.01625"
     inkscape:cx="400.492"
     inkscape:cy="400"
     inkscape:window-width="1920"
     inkscape:window-height="1009"
     inkscape:window-x="1358"
     inkscape:window-y="-8"
     inkscape:window-maximized="1"
     inkscape:current-layer="svg4" />
  <rect
     x="0.50749999"
     y="-8.4925003"
     width="57"
     height="39"
     rx="3.5"
     fill="white"
     stroke="#f3f3f3"
     id="rect1"
     style="fill:#ffffff;fill-opacity:0;stroke-width:1.015;stroke-dasharray:none" />
  <path
     d="m 12.2145,6.0131 c 0.5422,-0.1776 1.1222,-0.274 1.7257,-0.274 2.6339,0 4.8309,1.8332 5.3349,4.2684 L 23.0075,9.2618 C 22.1511,5.123 18.4174,2.0075 13.9402,2.0075 c -1.025,0 -2.0117,0.1636 -2.9327,0.465 z"
     fill="#fff200"
     id="path1" />
  <path
     d="M 7.77273,18.0075 10.0075,15.1254 C 9.00996,14.1176 8.38036,12.6463 8.38036,11.0063 c 0,-1.6387 0.62902,-3.11 1.62626,-4.117 L 7.77068,4.0075 C 6.07566,5.7197 5.0075,8.2207 5.0075,11.0063 c 0,2.7871 1.06972,5.289 2.76523,7.0012"
     fill="#00a4e0"
     id="path2" />
  <path
     d="m 19.2763,12.0075 c -0.5057,2.4348 -2.7014,4.2657 -5.3329,4.2657 -0.6038,0 -1.1849,-0.0967 -1.7272,-0.2748 l -1.2087,3.5424 c 0.9225,0.3029 1.9094,0.4667 2.9359,0.4667 4.4731,0 8.2043,-3.1134 9.0641,-7.2506 z"
     fill="#ef4123"
     id="path3" />
  <path
     fill-rule="evenodd"
     clip-rule="evenodd"
     d="M 40.9651,4.0075 V 14.25 l 1.8402,0.7367 -0.8706,2.0202 -1.8198,-0.7306 c -0.4092,-0.1714 -0.6861,-0.4325 -0.8965,-0.7274 -0.202,-0.3018 -0.3518,-0.7142 -0.3518,-1.2707 V 4.0075 Z M 27.0082,11.62 c 0.0457,-2.929 2.5431,-5.2671 5.5735,-5.2223 2.572,0.039 4.7031,1.779 5.2628,4.0933 l -9.9477,4.1065 C 27.3189,13.7442 26.9905,12.7178 27.0082,11.62 Z m 2.2761,0.4107 c -0.0136,-0.1229 -0.0233,-0.2489 -0.0196,-0.3761 0.0285,-1.7257 1.4988,-3.1027 3.2842,-3.0741 0.9719,0.0125 1.8348,0.4424 2.4181,1.1076 z m 5.4733,1.9016 c -0.5996,0.5632 -1.4126,0.9064 -2.3103,0.8941 -0.6153,-0.0099 -1.1854,-0.1879 -1.6702,-0.4843 l -1.2017,1.8494 c 0.823,0.5025 1.7934,0.7998 2.8396,0.8154 1.5229,0.0219 2.9109,-0.5559 3.9202,-1.51 z M 48.6239,8.5805 c -0.3584,0 -0.7029,0.0559 -1.0248,0.1603 L 46.883,6.6683 c 0.5466,-0.1762 1.1318,-0.272 1.7409,-0.272 2.6579,0 4.8752,1.8236 5.3836,4.2459 l -2.2166,0.4364 C 51.4922,9.653 50.1878,8.5805 48.6239,8.5805 Z m -3.6394,7.0953 1.4978,-1.6358 c -0.6689,-0.572 -1.0902,-1.4074 -1.0902,-2.3386 0,-0.9302 0.4213,-1.7651 1.0896,-2.3367 L 44.9828,7.7288 c -1.1363,0.972 -1.8522,2.3922 -1.8522,3.9726 0,1.5824 0.7165,3.0021 1.8539,3.9744 z m 3.6394,-0.8522 c 1.5624,0 2.8666,-1.0717 3.167,-2.4952 l 2.216,0.4383 c -0.5109,2.4197 -2.7275,4.2408 -5.383,4.2408 -0.6096,0 -1.1956,-0.0961 -1.7436,-0.2732 l 0.7178,-2.0717 c 0.3224,0.1041 0.6671,0.161 1.0258,0.161 z"
     fill="#000000"
     id="path4"
     style="fill:#404040;fill-opacity:1" />
</svg>
