<?xml version="1.0" encoding="UTF-8" standalone="no"?>
<!-- Uploaded to: SVG Repo, www.svgrepo.com, Generator: SVG Repo Mixer Tools -->

<svg
   width="800"
   height="551.724"
   viewBox="0 -9 58 39.99999"
   fill="none"
   version="1.1"
   id="svg4"
   sodipodi:docname="mastercard.svg"
   inkscape:version="1.3.2 (091e20e, 2023-11-25, custom)"
   xmlns:inkscape="http://www.inkscape.org/namespaces/inkscape"
   xmlns:sodipodi="http://sodipodi.sourceforge.net/DTD/sodipodi-0.dtd"
   xmlns="http://www.w3.org/2000/svg"
   xmlns:svg="http://www.w3.org/2000/svg">
  <defs
     id="defs4" />
  <sodipodi:namedview
     id="namedview4"
     pagecolor="#505050"
     bordercolor="#eeeeee"
     borderopacity="1"
     inkscape:showpageshadow="0"
     inkscape:pageopacity="0"
     inkscape:pagecheckerboard="0"
     inkscape:deskcolor="#505050"
     inkscape:zoom="1.01625"
     inkscape:cx="400.492"
     inkscape:cy="400"
     inkscape:window-width="1920"
     inkscape:window-height="1009"
     inkscape:window-x="1358"
     inkscape:window-y="-8"
     inkscape:window-maximized="1"
     inkscape:current-layer="svg4" />
  <rect
     x="0.5"
     y="-8.5"
     width="57"
     height="39"
     rx="3.5"
     fill="#ffffff"
     stroke="#f3f3f3"
     id="rect1"
     style="stroke-width:0.99999252;stroke-dasharray:none;fill:#ffffff;fill-opacity:0" />
  <path
     fill-rule="evenodd"
     clip-rule="evenodd"
     d="m 21.2489,21.8906 v 1.4768 1.4769 h -0.6473 v -0.3586 c -0.2053,0.266 -0.5168,0.4329 -0.9402,0.4329 -0.8348,0 -1.4892,-0.6486 -1.4892,-1.5512 0,-0.9018 0.6544,-1.5511 1.4892,-1.5511 0.4234,0 0.7349,0.1669 0.9402,0.4329 v -0.3586 z m -1.507,0.5312 c -0.5603,0 -0.9032,0.4265 -0.9032,0.9456 0,0.5192 0.3429,0.9457 0.9032,0.9457 0.5354,0 0.8968,-0.4081 0.8968,-0.9457 0,-0.5375 -0.3614,-0.9456 -0.8968,-0.9456 z m 23.3809,0.9456 c 0,-0.5191 0.3429,-0.9456 0.9032,-0.9456 0.5361,0 0.8968,0.4081 0.8968,0.9456 0,0.5376 -0.3607,0.9457 -0.8968,0.9457 -0.5603,0 -0.9032,-0.4265 -0.9032,-0.9457 z m 2.411,-2.663 v 2.663 1.4769 h -0.648 v -0.3586 c -0.2054,0.266 -0.5169,0.4329 -0.9403,0.4329 -0.8348,0 -1.4892,-0.6486 -1.4892,-1.5512 0,-0.9018 0.6544,-1.5511 1.4892,-1.5511 0.4234,0 0.7349,0.1669 0.9403,0.4329 v -1.5448 z m -16.25,1.687 c 0.417,0 0.685,0.2595 0.7535,0.7165 h -1.5448 c 0.0691,-0.4265 0.33,-0.7165 0.7913,-0.7165 z m -1.47,0.976 c 0,-0.9209 0.6102,-1.5511 1.4828,-1.5511 0.8341,0 1.4072,0.6302 1.4136,1.5511 0,0.0863 -0.0064,0.167 -0.0128,0.2469 h -2.2106 c 0.0934,0.5319 0.4733,0.7236 0.8903,0.7236 0.2987,0 0.6167,-0.1118 0.8662,-0.3091 l 0.3172,0.476 c -0.3614,0.3027 -0.772,0.4138 -1.2204,0.4138 -0.8911,0 -1.5263,-0.6118 -1.5263,-1.5512 z m 9.2988,0 c 0,-0.5191 0.3429,-0.9456 0.9032,-0.9456 0.5353,0 0.8968,0.4081 0.8968,0.9456 0,0.5376 -0.3615,0.9457 -0.8968,0.9457 -0.5603,0 -0.9032,-0.4265 -0.9032,-0.9457 z m 2.4102,-1.4768 v 1.4768 1.4769 h -0.6473 v -0.3586 c -0.206,0.266 -0.5168,0.4329 -0.9403,0.4329 -0.8348,0 -1.4892,-0.6486 -1.4892,-1.5512 0,-0.9018 0.6544,-1.5511 1.4892,-1.5511 0.4235,0 0.7343,0.1669 0.9403,0.4329 v -0.3586 z m -6.0659,1.4768 c 0,0.8962 0.6288,1.5512 1.5883,1.5512 0.4484,0 0.7471,-0.099 1.0708,-0.3523 l -0.3109,-0.5191 c -0.243,0.1733 -0.4983,0.2659 -0.7791,0.2659 -0.5169,-0.0063 -0.8968,-0.377 -0.8968,-0.9457 0,-0.5686 0.3799,-0.9393 0.8968,-0.9456 0.2808,0 0.5361,0.0926 0.7791,0.2659 l 0.3109,-0.5192 c -0.3237,-0.2532 -0.6224,-0.3522 -1.0708,-0.3522 -0.9595,0 -1.5883,0.655 -1.5883,1.5511 z m 7.5608,-1.1182 c 0.1682,-0.2596 0.4113,-0.4329 0.7849,-0.4329 0.1311,0 0.3179,0.0248 0.4612,0.0806 l -0.1996,0.6055 c -0.1369,-0.0559 -0.2738,-0.0743 -0.4049,-0.0743 -0.4235,0 -0.6352,0.2716 -0.6352,0.7604 v 1.6558 h -0.648 v -2.9537 h 0.6416 z M 24.4505,22.1254 c -0.3116,-0.2037 -0.7407,-0.3091 -1.2141,-0.3091 -0.7542,0 -1.2397,0.3586 -1.2397,0.9457 0,0.4817 0.3615,0.7787 1.0273,0.8714 l 0.3058,0.0431 c 0.355,0.0496 0.5226,0.1422 0.5226,0.3091 0,0.2285 -0.2367,0.3586 -0.6787,0.3586 -0.4484,0 -0.772,-0.1421 -0.9902,-0.3091 l -0.3051,0.5001 c 0.355,0.2596 0.8034,0.3834 1.2889,0.3834 0.8597,0 1.358,-0.4018 1.358,-0.9641 0,-0.5192 -0.3921,-0.7908 -1.0401,-0.8834 l -0.3051,-0.0439 c -0.2801,-0.0368 -0.5047,-0.0919 -0.5047,-0.29 0,-0.2164 0.2117,-0.3458 0.5667,-0.3458 0.38,0 0.7478,0.1421 0.9282,0.2532 z m 7.5679,0.1238 c 0.1675,-0.2596 0.4106,-0.4329 0.7841,-0.4329 0.1312,0 0.318,0.0248 0.4612,0.0806 l -0.1996,0.6055 c -0.1368,-0.0559 -0.2737,-0.0743 -0.4049,-0.0743 -0.4234,0 -0.6351,0.2716 -0.6351,0.7604 v 1.6558 h -0.6473 v -2.9537 h 0.6416 z m -4.74,-0.3586 h -1.0586 v -0.8962 h -0.6544 v 0.8962 h -0.6038 v 0.587 h 0.6038 v 1.3475 c 0,0.6854 0.268,1.0935 1.0337,1.0935 0.2808,0 0.6045,-0.0863 0.8098,-0.2285 l -0.1868,-0.5503 c -0.1932,0.1111 -0.4049,0.167 -0.5731,0.167 -0.3237,0 -0.4292,-0.1981 -0.4292,-0.4945 v -1.3347 h 1.0586 z m -9.6787,1.0998 v 1.8539 h -0.6544 v -1.6438 c 0,-0.5008 -0.2117,-0.7787 -0.6537,-0.7787 -0.4299,0 -0.7286,0.2723 -0.7286,0.7851 v 1.6374 h -0.6544 v -1.6438 c 0,-0.5008 -0.2174,-0.7787 -0.6473,-0.7787 -0.4427,0 -0.7292,0.2723 -0.7292,0.7851 v 1.6374 h -0.6537 v -2.9537 h 0.648 v 0.3642 c 0.2431,-0.3458 0.5539,-0.4385 0.8718,-0.4385 0.4548,0 0.7785,0.1981 0.9838,0.5255 0.2744,-0.4144 0.6665,-0.5319 1.0465,-0.5255 0.7228,0.0064 1.1712,0.476 1.1712,1.1741 z"
     fill="#231f20"
     id="path1"
     style="fill:#404040;fill-opacity:1" />
  <path
     d="M 34.0465,16.8715 H 24.2359 V -0.6217 h 9.8106 z"
     fill="#ff5f00"
     id="path2" />
  <path
     d="m 24.8583,8.1253 c 0,-3.5486 1.6745,-6.7096 4.2822,-8.74663 -1.9069,-1.4896 -4.3136,-2.37869 -6.9291,-2.37869 C 16.0194,-3.00002 11,1.9809 11,8.1253 c 0,6.1444 5.0194,11.1253 11.2114,11.1253 2.6155,0 5.0222,-0.8891 6.9291,-2.3787 -2.6077,-2.037 -4.2822,-5.198 -4.2822,-8.7466"
     fill="#eb001b"
     id="path3" />
  <path
     d="m 47.2818,8.1253 c 0,6.1444 -5.0194,11.1253 -11.2114,11.1253 -2.6156,0 -5.0222,-0.8891 -6.9299,-2.3787 2.6084,-2.037 4.283,-5.198 4.283,-8.7466 0,-3.5486 -1.6746,-6.7096 -4.283,-8.74663 1.9077,-1.4896 4.3143,-2.37869 6.9299,-2.37869 6.192,0 11.2114,4.98092 11.2114,11.12532"
     fill="#f79e1b"
     id="path4" />
</svg>
