<?xml version="1.0" encoding="UTF-8" standalone="no"?>
<!-- Uploaded to: SVG Repo, www.svgrepo.com, Generator: SVG Repo Mixer Tools -->

<svg
   width="758.79199"
   height="479.79199"
   viewBox="0 0 758.79199 479.79199"
   version="1.1"
   id="svg14"
   sodipodi:docname="visa.svg"
   inkscape:version="1.3.2 (091e20e, 2023-11-25, custom)"
   xmlns:inkscape="http://www.inkscape.org/namespaces/inkscape"
   xmlns:sodipodi="http://sodipodi.sourceforge.net/DTD/sodipodi-0.dtd"
   xmlns="http://www.w3.org/2000/svg"
   xmlns:svg="http://www.w3.org/2000/svg"
   xmlns:rdf="http://www.w3.org/1999/02/22-rdf-syntax-ns#"
   xmlns:cc="http://creativecommons.org/ns#"
   xmlns:dc="http://purl.org/dc/elements/1.1/">
  <metadata
     id="metadata18">
    <rdf:RDF>
      <cc:Work
         rdf:about="">
        <dc:format>image/svg+xml</dc:format>
        <dc:type
           rdf:resource="http://purl.org/dc/dcmitype/StillImage" />
      </cc:Work>
    </rdf:RDF>
  </metadata>
  <sodipodi:namedview
     pagecolor="#505050"
     bordercolor="#666666"
     borderopacity="1"
     objecttolerance="10"
     gridtolerance="10"
     guidetolerance="10"
     inkscape:pageopacity="0"
     inkscape:pageshadow="2"
     inkscape:window-width="1920"
     inkscape:window-height="1009"
     id="namedview16"
     showgrid="false"
     inkscape:zoom="0.768"
     inkscape:cx="389.32292"
     inkscape:cy="275.39062"
     inkscape:window-x="1358"
     inkscape:window-y="-8"
     inkscape:window-maximized="1"
     inkscape:current-layer="visa"
     inkscape:showpageshadow="0"
     inkscape:pagecheckerboard="0"
     inkscape:deskcolor="#505050" />
  <desc
     id="desc2">Created with Sketch.</desc>
  <defs
     id="defs4" />
  <g
     id="Page-1"
     stroke="none"
     stroke-width="1"
     fill="none"
     fill-rule="evenodd">
    <g
       id="visa"
       fill-rule="nonzero">
      <rect
         id="Rectangle-1"
         fill="#0E4595"
         x="7"
         y="7.0000024"
         width="744.79163"
         height="465.79199"
         rx="40"
         style="fill:#000000;fill-opacity:0;stroke:#ffffff;stroke-width:14;stroke-dasharray:none;stroke-opacity:1" />
      <polygon
         id="Shape"
         fill="#FFFFFF"
         points="311.5585,138.4655 364.9175,138.4655 331.5335,334.2275 278.1975,334.2275 "
         style="fill:#0e4595;fill-opacity:1" />
      <path
         d="m 524.3075,142.6875 c -10.572,-3.966 -27.136,-8.222 -47.823,-8.222 -52.724,0 -89.864,26.551 -90.18,64.604 -0.297,28.129 26.514,43.821 46.754,53.185 20.769,9.595 27.752,15.715 27.653,24.283 -0.132,13.122 -16.586,19.117 -31.923,19.117 -21.357,0 -32.703,-2.967 -50.226,-10.276 l -6.876,-3.112 -7.489,43.824 c 12.463,5.464 35.509,10.199 59.438,10.444 56.089,0 92.501,-26.247 92.915,-66.882 0.201,-22.269 -14.015,-39.217 -44.799,-53.188 -18.651,-9.056 -30.073,-15.099 -29.952,-24.269 0,-8.137 9.668,-16.838 30.557,-16.838 17.449,-0.271 30.088,3.534 39.936,7.5 l 4.782,2.259 7.233,-42.429"
         id="path13"
         fill="#FFFFFF"
         style="fill:#0e4595;fill-opacity:1" />
      <path
         d="m 661.6145,138.4655 h -41.231 c -12.773,0 -22.331,3.486 -27.941,16.234 l -79.245,179.403 h 56.031 c 0,0 9.162,-24.122 11.234,-29.418 6.123,0 60.554,0.084 68.336,0.084 1.596,6.853 6.492,29.334 6.492,29.334 h 49.512 z m -65.417,126.407 c 4.413,-11.279 21.259,-54.723 21.259,-54.723 -0.315,0.521 4.38,-11.334 7.075,-18.684 l 3.607,16.878 c 0,0 10.217,46.729 12.352,56.528 h -44.293 z"
         id="Path"
         fill="#FFFFFF"
         style="fill:#0e4595;fill-opacity:1" />
      <path
         d="m 45.878906,138.46484 -0.68164,4.07422 c 21.090997,5.10552 39.929199,12.49351 56.421874,21.68555 l 47.3457,169.69141 56.45508,-0.0664 84.00391,-195.38477 h -56.52149 l -52.24023,133.4961 -5.56641,-27.12891 c -0.25746,-0.82795 -0.53628,-1.65899 -0.82226,-2.49023 L 156.10742,154.9922 c -3.23,-12.396 -12.5985,-16.09535 -24.1875,-16.52735 z"
         id="path16"
         style="fill:#0e4595;fill-opacity:1" />
    </g>
  </g>
</svg>
